<svg width="600" height="400" viewBox="0 0 600 400" fill="none" xmlns="http://www.w3.org/2000/svg">
  <defs>
    <linearGradient id="skyGradient" x1="0%" y1="0%" x2="0%" y2="100%">
      <stop offset="0%" style="stop-color:#87CEEB;stop-opacity:0.3" />
      <stop offset="100%" style="stop-color:#ffffff;stop-opacity:0.1" />
    </linearGradient>
    
    <linearGradient id="grassGradient" x1="0%" y1="0%" x2="0%" y2="100%">
      <stop offset="0%" style="stop-color:#6db33f;stop-opacity:1" />
      <stop offset="100%" style="stop-color:#4a7c2a;stop-opacity:1" />
    </linearGradient>
    
    <linearGradient id="clubGradient" x1="0%" y1="0%" x2="100%" y2="100%">
      <stop offset="0%" style="stop-color:#2d5016;stop-opacity:1" />
      <stop offset="100%" style="stop-color:#1a3009;stop-opacity:1" />
    </linearGradient>
  </defs>
  
  <!-- Background -->
  <rect width="600" height="400" fill="url(#skyGradient)"/>
  
  <!-- Golf course ground -->
  <ellipse cx="300" cy="380" rx="300" ry="50" fill="url(#grassGradient)"/>
  
  <!-- Golf bag -->
  <rect x="450" y="250" width="40" height="120" rx="20" fill="#2d5016" stroke="#1a3009" stroke-width="2"/>
  <rect x="460" y="240" width="20" height="15" rx="5" fill="#6db33f"/>
  
  <!-- Golf clubs in bag -->
  <line x1="465" y1="240" x2="465" y2="180" stroke="#2d5016" stroke-width="3"/>
  <line x1="470" y1="240" x2="470" y2="185" stroke="#2d5016" stroke-width="3"/>
  <line x1="475" y1="240" x2="475" y2="190" stroke="#2d5016" stroke-width="3"/>
  <line x1="480" y1="240" x2="480" y2="195" stroke="#2d5016" stroke-width="3"/>
  
  <!-- Club heads -->
  <rect x="463" y="178" width="4" height="8" fill="#4a7c2a"/>
  <rect x="468" y="183" width="4" height="8" fill="#4a7c2a"/>
  <rect x="473" y="188" width="4" height="8" fill="#4a7c2a"/>
  <rect x="478" y="193" width="4" height="8" fill="#4a7c2a"/>
  
  <!-- Large golf club (driver) -->
  <line x1="200" y1="350" x2="250" y2="120" stroke="url(#clubGradient)" stroke-width="6" stroke-linecap="round"/>
  <ellipse cx="252" cy="115" rx="15" ry="8" fill="#2d5016" transform="rotate(20 252 115)"/>
  
  <!-- Golf balls scattered -->
  <circle cx="150" cy="320" r="8" fill="#ffffff" stroke="#cccccc" stroke-width="1"/>
  <circle cx="147" cy="317" r="1" fill="#cccccc"/>
  <circle cx="151" cy="318" r="1" fill="#cccccc"/>
  <circle cx="149" cy="322" r="1" fill="#cccccc"/>
  <circle cx="153" cy="321" r="0.8" fill="#cccccc"/>
  
  <circle cx="350" cy="300" r="8" fill="#ffffff" stroke="#cccccc" stroke-width="1"/>
  <circle cx="347" cy="297" r="1" fill="#cccccc"/>
  <circle cx="351" cy="298" r="1" fill="#cccccc"/>
  <circle cx="349" cy="302" r="1" fill="#cccccc"/>
  <circle cx="353" cy="301" r="0.8" fill="#cccccc"/>
  
  <!-- Golf tees -->
  <line x1="120" y1="340" x2="120" y2="350" stroke="#8B4513" stroke-width="2"/>
  <circle cx="120" cy="340" r="1.5" fill="#8B4513"/>
  
  <line x1="380" y1="320" x2="380" y2="330" stroke="#8B4513" stroke-width="2"/>
  <circle cx="380" cy="320" r="1.5" fill="#8B4513"/>
  
  <!-- Flag in distance -->
  <line x1="520" y1="200" x2="520" y2="280" stroke="#2d5016" stroke-width="3"/>
  <path d="M520 200 L540 210 L520 220 Z" fill="#FF6B6B"/>
  
  <!-- Hole -->
  <circle cx="520" cy="285" r="6" fill="#1a3009"/>
  <ellipse cx="520" cy="285" rx="8" ry="3" fill="#2d5016" opacity="0.5"/>
  
  <!-- Grass texture -->
  <g opacity="0.6">
    <path d="M50 350 Q55 345 60 350 Q65 345 70 350" stroke="#4a7c2a" stroke-width="2" fill="none"/>
    <path d="M80 360 Q85 355 90 360 Q95 355 100 360" stroke="#4a7c2a" stroke-width="2" fill="none"/>
    <path d="M110 345 Q115 340 120 345 Q125 340 130 345" stroke="#4a7c2a" stroke-width="2" fill="none"/>
    <path d="M250 360 Q255 355 260 360 Q265 355 270 360" stroke="#4a7c2a" stroke-width="2" fill="none"/>
    <path d="M280 350 Q285 345 290 350 Q295 345 300 350" stroke="#4a7c2a" stroke-width="2" fill="none"/>
    <path d="M320 365 Q325 360 330 365 Q335 360 340 365" stroke="#4a7c2a" stroke-width="2" fill="none"/>
  </g>
  
  <!-- Decorative elements -->
  <circle cx="100" cy="200" r="3" fill="#6db33f" opacity="0.4"/>
  <circle cx="500" cy="150" r="4" fill="#6db33f" opacity="0.3"/>
  <circle cx="300" cy="100" r="2" fill="#6db33f" opacity="0.5"/>
  
  <!-- Golf cart silhouette in background -->
  <g opacity="0.2">
    <rect x="30" y="220" width="60" height="40" rx="5" fill="#2d5016"/>
    <circle cx="45" cy="270" r="8" fill="#1a3009"/>
    <circle cx="75" cy="270" r="8" fill="#1a3009"/>
    <rect x="35" y="200" width="50" height="25" rx="3" fill="#2d5016"/>
  </g>
</svg>
