<svg width="32" height="32" viewBox="0 0 32 32" fill="none" xmlns="http://www.w3.org/2000/svg">
  <defs>
    <linearGradient id="logoGradient" x1="0%" y1="0%" x2="100%" y2="100%">
      <stop offset="0%" style="stop-color:#2d5016;stop-opacity:1" />
      <stop offset="100%" style="stop-color:#6db33f;stop-opacity:1" />
    </linearGradient>
  </defs>
  
  <!-- Golf club shaft -->
  <path d="M8 2 L12 28 L10 28 L6 2 Z" fill="url(#logoGradient)" stroke="#1a3009" stroke-width="0.5"/>
  
  <!-- Golf club head -->
  <ellipse cx="7" cy="29" rx="3" ry="1.5" fill="url(#logoGradient)" stroke="#1a3009" stroke-width="0.5"/>
  
  <!-- Golf ball -->
  <circle cx="22" cy="8" r="4" fill="#ffffff" stroke="#2d5016" stroke-width="1"/>
  <circle cx="21" cy="7" r="0.5" fill="#2d5016"/>
  <circle cx="23" cy="8" r="0.5" fill="#2d5016"/>
  <circle cx="22" cy="9.5" r="0.5" fill="#2d5016"/>
  <circle cx="20.5" cy="9" r="0.3" fill="#2d5016"/>
  <circle cx="23.5" cy="7" r="0.3" fill="#2d5016"/>
  
  <!-- Golf flag -->
  <line x1="26" y1="4" x2="26" y2="16" stroke="#2d5016" stroke-width="1"/>
  <path d="M26 4 L30 6 L26 8 Z" fill="#6db33f"/>
  
  <!-- Grass elements -->
  <path d="M2 30 Q3 28 4 30 Q5 28 6 30 Q7 28 8 30" stroke="#4a7c2a" stroke-width="1" fill="none"/>
  <path d="M24 30 Q25 28 26 30 Q27 28 28 30 Q29 28 30 30" stroke="#4a7c2a" stroke-width="1" fill="none"/>
  
  <!-- Decorative elements -->
  <circle cx="16" cy="16" r="1" fill="#6db33f" opacity="0.6"/>
  <circle cx="12" cy="12" r="0.8" fill="#6db33f" opacity="0.4"/>
  <circle cx="20" cy="20" r="0.6" fill="#6db33f" opacity="0.3"/>
</svg>
